<mxfile host="app.diagrams.net" modified="2024-02-25T09:14:57.284Z" agent="Mozilla/5.0 (Macintosh; Intel Mac OS X 10_15_7) AppleWebKit/537.36 (KHTML, like Gecko) Chrome/121.0.0.0 Safari/537.36" etag="LXmsp2GT0rpSKu5CL4v_" version="23.1.6" type="github" pages="2">
  <diagram id="D5TdfPoUz5Am6Vt0mHvL" name="Context Drawing">
    <mxGraphModel dx="1132" dy="755" grid="1" gridSize="10" guides="1" tooltips="1" connect="1" arrows="1" fold="1" page="1" pageScale="1" pageWidth="827" pageHeight="1169" math="0" shadow="0">
      <root>
        <mxCell id="0" />
        <mxCell id="1" parent="0" />
        <mxCell id="V7A0DTkKhkbpMgO7PrwX-6" value="" style="group" vertex="1" connectable="0" parent="1">
          <mxGeometry x="330" y="79" width="90" height="110" as="geometry" />
        </mxCell>
        <mxCell id="V7A0DTkKhkbpMgO7PrwX-3" value="" style="rounded=1;whiteSpace=wrap;html=1;" vertex="1" parent="V7A0DTkKhkbpMgO7PrwX-6">
          <mxGeometry width="90" height="110" as="geometry" />
        </mxCell>
        <mxCell id="V7A0DTkKhkbpMgO7PrwX-4" value="" style="endArrow=none;html=1;rounded=0;exitX=0;exitY=0.25;exitDx=0;exitDy=0;entryX=1;entryY=0.25;entryDx=0;entryDy=0;" edge="1" parent="V7A0DTkKhkbpMgO7PrwX-6" source="V7A0DTkKhkbpMgO7PrwX-3" target="V7A0DTkKhkbpMgO7PrwX-3">
          <mxGeometry width="50" height="50" relative="1" as="geometry">
            <mxPoint x="10" y="29.5" as="sourcePoint" />
            <mxPoint x="80" y="29.5" as="targetPoint" />
          </mxGeometry>
        </mxCell>
        <mxCell id="V7A0DTkKhkbpMgO7PrwX-35" style="edgeStyle=orthogonalEdgeStyle;rounded=0;orthogonalLoop=1;jettySize=auto;html=1;entryX=0.5;entryY=0;entryDx=0;entryDy=0;" edge="1" parent="V7A0DTkKhkbpMgO7PrwX-6" target="V7A0DTkKhkbpMgO7PrwX-28">
          <mxGeometry relative="1" as="geometry">
            <mxPoint x="45" y="231" as="targetPoint" />
            <mxPoint x="44.99999999999977" y="110" as="sourcePoint" />
          </mxGeometry>
        </mxCell>
        <mxCell id="V7A0DTkKhkbpMgO7PrwX-37" value="Prescription is reviewed" style="edgeLabel;html=1;align=center;verticalAlign=middle;resizable=0;points=[];rotation=90;" vertex="1" connectable="0" parent="V7A0DTkKhkbpMgO7PrwX-35">
          <mxGeometry y="2" relative="1" as="geometry">
            <mxPoint x="14" y="-4" as="offset" />
          </mxGeometry>
        </mxCell>
        <mxCell id="V7A0DTkKhkbpMgO7PrwX-25" value="Prescription&lt;br&gt;Review&lt;br&gt;System" style="text;html=1;align=center;verticalAlign=middle;whiteSpace=wrap;rounded=0;" vertex="1" parent="V7A0DTkKhkbpMgO7PrwX-6">
          <mxGeometry x="15" y="40" width="60" height="60" as="geometry" />
        </mxCell>
        <mxCell id="V7A0DTkKhkbpMgO7PrwX-26" value="1.0" style="text;html=1;align=center;verticalAlign=middle;whiteSpace=wrap;rounded=0;" vertex="1" parent="V7A0DTkKhkbpMgO7PrwX-6">
          <mxGeometry x="15" y="10" width="50" height="20" as="geometry" />
        </mxCell>
        <mxCell id="V7A0DTkKhkbpMgO7PrwX-8" value="" style="group" vertex="1" connectable="0" parent="1">
          <mxGeometry x="40" y="105" width="120" height="60" as="geometry" />
        </mxCell>
        <mxCell id="V7A0DTkKhkbpMgO7PrwX-1" value="" style="rounded=0;whiteSpace=wrap;html=1;" vertex="1" parent="V7A0DTkKhkbpMgO7PrwX-8">
          <mxGeometry width="120" height="60" as="geometry" />
        </mxCell>
        <mxCell id="V7A0DTkKhkbpMgO7PrwX-7" value="Doctor" style="text;html=1;align=center;verticalAlign=middle;whiteSpace=wrap;rounded=0;" vertex="1" parent="V7A0DTkKhkbpMgO7PrwX-8">
          <mxGeometry x="20" y="15" width="80" height="30" as="geometry" />
        </mxCell>
        <mxCell id="V7A0DTkKhkbpMgO7PrwX-9" value="" style="group" vertex="1" connectable="0" parent="1">
          <mxGeometry x="555" y="564" width="120" height="60" as="geometry" />
        </mxCell>
        <mxCell id="V7A0DTkKhkbpMgO7PrwX-10" value="" style="rounded=0;whiteSpace=wrap;html=1;" vertex="1" parent="V7A0DTkKhkbpMgO7PrwX-9">
          <mxGeometry width="120" height="60" as="geometry" />
        </mxCell>
        <mxCell id="V7A0DTkKhkbpMgO7PrwX-11" value="Billing" style="text;html=1;align=center;verticalAlign=middle;whiteSpace=wrap;rounded=0;" vertex="1" parent="V7A0DTkKhkbpMgO7PrwX-9">
          <mxGeometry x="20" y="15" width="80" height="30" as="geometry" />
        </mxCell>
        <mxCell id="V7A0DTkKhkbpMgO7PrwX-17" style="edgeStyle=orthogonalEdgeStyle;rounded=0;orthogonalLoop=1;jettySize=auto;html=1;exitX=1;exitY=0.5;exitDx=0;exitDy=0;entryX=0;entryY=0.5;entryDx=0;entryDy=0;" edge="1" parent="1" source="V7A0DTkKhkbpMgO7PrwX-1" target="V7A0DTkKhkbpMgO7PrwX-3">
          <mxGeometry relative="1" as="geometry" />
        </mxCell>
        <mxCell id="V7A0DTkKhkbpMgO7PrwX-18" value="Doctor Prescription" style="text;html=1;align=center;verticalAlign=middle;resizable=0;points=[];autosize=1;strokeColor=none;fillColor=none;" vertex="1" parent="1">
          <mxGeometry x="180" y="110" width="130" height="30" as="geometry" />
        </mxCell>
        <mxCell id="V7A0DTkKhkbpMgO7PrwX-27" value="" style="group" vertex="1" connectable="0" parent="1">
          <mxGeometry x="330" y="315" width="90" height="110" as="geometry" />
        </mxCell>
        <mxCell id="V7A0DTkKhkbpMgO7PrwX-28" value="" style="rounded=1;whiteSpace=wrap;html=1;" vertex="1" parent="V7A0DTkKhkbpMgO7PrwX-27">
          <mxGeometry width="90" height="110" as="geometry" />
        </mxCell>
        <mxCell id="V7A0DTkKhkbpMgO7PrwX-29" value="" style="endArrow=none;html=1;rounded=0;exitX=0;exitY=0.25;exitDx=0;exitDy=0;entryX=1;entryY=0.25;entryDx=0;entryDy=0;" edge="1" parent="V7A0DTkKhkbpMgO7PrwX-27" source="V7A0DTkKhkbpMgO7PrwX-28" target="V7A0DTkKhkbpMgO7PrwX-28">
          <mxGeometry width="50" height="50" relative="1" as="geometry">
            <mxPoint x="10" y="29.5" as="sourcePoint" />
            <mxPoint x="80" y="29.5" as="targetPoint" />
          </mxGeometry>
        </mxCell>
        <mxCell id="V7A0DTkKhkbpMgO7PrwX-30" value="Pharmacy Station System" style="text;html=1;align=center;verticalAlign=middle;whiteSpace=wrap;rounded=0;" vertex="1" parent="V7A0DTkKhkbpMgO7PrwX-27">
          <mxGeometry x="15" y="40" width="60" height="60" as="geometry" />
        </mxCell>
        <mxCell id="V7A0DTkKhkbpMgO7PrwX-31" value="2.0" style="text;html=1;align=center;verticalAlign=middle;whiteSpace=wrap;rounded=0;" vertex="1" parent="V7A0DTkKhkbpMgO7PrwX-27">
          <mxGeometry x="15" y="10" width="50" height="20" as="geometry" />
        </mxCell>
        <mxCell id="V7A0DTkKhkbpMgO7PrwX-32" value="" style="group" vertex="1" connectable="0" parent="1">
          <mxGeometry x="315" y="536" width="120" height="60" as="geometry" />
        </mxCell>
        <mxCell id="V7A0DTkKhkbpMgO7PrwX-13" value="" style="rounded=0;whiteSpace=wrap;html=1;" vertex="1" parent="V7A0DTkKhkbpMgO7PrwX-32">
          <mxGeometry width="120" height="60" as="geometry" />
        </mxCell>
        <mxCell id="V7A0DTkKhkbpMgO7PrwX-14" value="Prescribing Doctor" style="text;html=1;align=center;verticalAlign=middle;whiteSpace=wrap;rounded=0;" vertex="1" parent="V7A0DTkKhkbpMgO7PrwX-32">
          <mxGeometry x="20" y="15" width="80" height="30" as="geometry" />
        </mxCell>
        <mxCell id="V7A0DTkKhkbpMgO7PrwX-34" value="" style="endArrow=classic;html=1;rounded=0;" edge="1" parent="1">
          <mxGeometry width="50" height="50" relative="1" as="geometry">
            <mxPoint x="370" y="425" as="sourcePoint" />
            <mxPoint x="370" y="530" as="targetPoint" />
          </mxGeometry>
        </mxCell>
        <mxCell id="V7A0DTkKhkbpMgO7PrwX-41" value="Prescription not filled" style="edgeLabel;html=1;align=center;verticalAlign=middle;resizable=0;points=[];rotation=90;" vertex="1" connectable="0" parent="V7A0DTkKhkbpMgO7PrwX-34">
          <mxGeometry x="0.0286" y="-1" relative="1" as="geometry">
            <mxPoint x="12" as="offset" />
          </mxGeometry>
        </mxCell>
        <mxCell id="V7A0DTkKhkbpMgO7PrwX-36" value="" style="endArrow=classic;html=1;rounded=0;" edge="1" parent="1">
          <mxGeometry width="50" height="50" relative="1" as="geometry">
            <mxPoint x="420" y="355" as="sourcePoint" />
            <mxPoint x="570" y="355" as="targetPoint" />
          </mxGeometry>
        </mxCell>
        <mxCell id="V7A0DTkKhkbpMgO7PrwX-51" value="Prescription Label/ Order" style="edgeLabel;html=1;align=center;verticalAlign=middle;resizable=0;points=[];" vertex="1" connectable="0" parent="V7A0DTkKhkbpMgO7PrwX-36">
          <mxGeometry x="-0.4428" relative="1" as="geometry">
            <mxPoint x="26" y="-10" as="offset" />
          </mxGeometry>
        </mxCell>
        <mxCell id="V7A0DTkKhkbpMgO7PrwX-38" value="" style="endArrow=classic;html=1;rounded=0;exitX=0.297;exitY=-0.003;exitDx=0;exitDy=0;exitPerimeter=0;" edge="1" parent="1" source="V7A0DTkKhkbpMgO7PrwX-28">
          <mxGeometry width="50" height="50" relative="1" as="geometry">
            <mxPoint x="460" y="370" as="sourcePoint" />
            <mxPoint x="357" y="190" as="targetPoint" />
          </mxGeometry>
        </mxCell>
        <mxCell id="V7A0DTkKhkbpMgO7PrwX-40" value="Receipt of Prescription" style="edgeLabel;html=1;align=center;verticalAlign=middle;resizable=0;points=[];rotation=-90;" vertex="1" connectable="0" parent="1">
          <mxGeometry x="340.0035116027048" y="249.99571428571426" as="geometry" />
        </mxCell>
        <mxCell id="V7A0DTkKhkbpMgO7PrwX-44" value="" style="endArrow=classic;html=1;rounded=0;edgeStyle=orthogonalEdgeStyle;exitX=0.005;exitY=0.569;exitDx=0;exitDy=0;exitPerimeter=0;" edge="1" parent="1" source="V7A0DTkKhkbpMgO7PrwX-13" target="V7A0DTkKhkbpMgO7PrwX-18">
          <mxGeometry width="50" height="50" relative="1" as="geometry">
            <mxPoint x="310" y="570" as="sourcePoint" />
            <mxPoint x="230" y="140" as="targetPoint" />
          </mxGeometry>
        </mxCell>
        <mxCell id="V7A0DTkKhkbpMgO7PrwX-45" value="Replacement Prescription" style="edgeLabel;html=1;align=center;verticalAlign=middle;resizable=0;points=[];rotation=90;" vertex="1" connectable="0" parent="V7A0DTkKhkbpMgO7PrwX-44">
          <mxGeometry x="-0.216" y="1" relative="1" as="geometry">
            <mxPoint x="10" as="offset" />
          </mxGeometry>
        </mxCell>
        <mxCell id="V7A0DTkKhkbpMgO7PrwX-46" value="" style="group" vertex="1" connectable="0" parent="1">
          <mxGeometry x="570" y="310" width="90" height="110" as="geometry" />
        </mxCell>
        <mxCell id="V7A0DTkKhkbpMgO7PrwX-47" value="" style="rounded=1;whiteSpace=wrap;html=1;" vertex="1" parent="V7A0DTkKhkbpMgO7PrwX-46">
          <mxGeometry width="90" height="110" as="geometry" />
        </mxCell>
        <mxCell id="V7A0DTkKhkbpMgO7PrwX-48" value="" style="endArrow=none;html=1;rounded=0;exitX=0;exitY=0.25;exitDx=0;exitDy=0;entryX=1;entryY=0.25;entryDx=0;entryDy=0;" edge="1" parent="V7A0DTkKhkbpMgO7PrwX-46" source="V7A0DTkKhkbpMgO7PrwX-47" target="V7A0DTkKhkbpMgO7PrwX-47">
          <mxGeometry width="50" height="50" relative="1" as="geometry">
            <mxPoint x="10" y="29.5" as="sourcePoint" />
            <mxPoint x="80" y="29.5" as="targetPoint" />
          </mxGeometry>
        </mxCell>
        <mxCell id="V7A0DTkKhkbpMgO7PrwX-49" value="Nurse Station" style="text;html=1;align=center;verticalAlign=middle;whiteSpace=wrap;rounded=0;" vertex="1" parent="V7A0DTkKhkbpMgO7PrwX-46">
          <mxGeometry x="15" y="40" width="60" height="60" as="geometry" />
        </mxCell>
        <mxCell id="V7A0DTkKhkbpMgO7PrwX-50" value="3.0" style="text;html=1;align=center;verticalAlign=middle;whiteSpace=wrap;rounded=0;" vertex="1" parent="V7A0DTkKhkbpMgO7PrwX-46">
          <mxGeometry x="15" y="10" width="50" height="20" as="geometry" />
        </mxCell>
        <mxCell id="V7A0DTkKhkbpMgO7PrwX-52" value="" style="endArrow=classic;html=1;rounded=0;exitX=0.5;exitY=1;exitDx=0;exitDy=0;entryX=0.5;entryY=0;entryDx=0;entryDy=0;" edge="1" parent="1" source="V7A0DTkKhkbpMgO7PrwX-47" target="V7A0DTkKhkbpMgO7PrwX-10">
          <mxGeometry width="50" height="50" relative="1" as="geometry">
            <mxPoint x="370" y="380" as="sourcePoint" />
            <mxPoint x="615" y="530" as="targetPoint" />
          </mxGeometry>
        </mxCell>
        <mxCell id="V7A0DTkKhkbpMgO7PrwX-55" value="Patient Prescriptiom Cost&amp;nbsp;" style="edgeLabel;html=1;align=center;verticalAlign=middle;resizable=0;points=[];rotation=90;" vertex="1" connectable="0" parent="V7A0DTkKhkbpMgO7PrwX-52">
          <mxGeometry x="-0.0402" y="5" relative="1" as="geometry">
            <mxPoint x="6" as="offset" />
          </mxGeometry>
        </mxCell>
        <mxCell id="V7A0DTkKhkbpMgO7PrwX-54" value="Context diagram of Mercy Hospital&#39;s Pharmacy System" style="text;html=1;align=center;verticalAlign=middle;whiteSpace=wrap;rounded=0;fontStyle=1" vertex="1" parent="1">
          <mxGeometry x="170" y="30" width="470" height="30" as="geometry" />
        </mxCell>
      </root>
    </mxGraphModel>
  </diagram>
  <diagram id="C46RhYPqFEbvyPEfnd_q" name="Level - 0 Diagram">
    <mxGraphModel dx="1306" dy="871" grid="1" gridSize="10" guides="1" tooltips="1" connect="1" arrows="1" fold="1" page="1" pageScale="1" pageWidth="1169" pageHeight="827" math="0" shadow="0">
      <root>
        <mxCell id="0" />
        <mxCell id="1" parent="0" />
        <mxCell id="1HtGVeH6TY6uXh49nren-6" value="" style="group" vertex="1" connectable="0" parent="1">
          <mxGeometry x="30" y="340" width="120" height="60" as="geometry" />
        </mxCell>
        <mxCell id="1HtGVeH6TY6uXh49nren-7" value="" style="rounded=0;whiteSpace=wrap;html=1;" vertex="1" parent="1HtGVeH6TY6uXh49nren-6">
          <mxGeometry width="120" height="60" as="geometry" />
        </mxCell>
        <mxCell id="1HtGVeH6TY6uXh49nren-8" value="Doctor" style="text;html=1;align=center;verticalAlign=middle;whiteSpace=wrap;rounded=0;" vertex="1" parent="1HtGVeH6TY6uXh49nren-6">
          <mxGeometry x="20" y="15" width="80" height="30" as="geometry" />
        </mxCell>
        <mxCell id="1HtGVeH6TY6uXh49nren-9" value="" style="group" vertex="1" connectable="0" parent="1">
          <mxGeometry x="1000" y="434" width="120" height="60" as="geometry" />
        </mxCell>
        <mxCell id="1HtGVeH6TY6uXh49nren-10" value="" style="rounded=0;whiteSpace=wrap;html=1;" vertex="1" parent="1HtGVeH6TY6uXh49nren-9">
          <mxGeometry width="120" height="60" as="geometry" />
        </mxCell>
        <mxCell id="1HtGVeH6TY6uXh49nren-11" value="Billing Department" style="text;html=1;align=center;verticalAlign=middle;whiteSpace=wrap;rounded=0;" vertex="1" parent="1HtGVeH6TY6uXh49nren-9">
          <mxGeometry x="20" y="15" width="80" height="30" as="geometry" />
        </mxCell>
        <mxCell id="1HtGVeH6TY6uXh49nren-12" value="Gives Prescription" style="text;html=1;align=center;verticalAlign=middle;resizable=0;points=[];autosize=1;strokeColor=none;fillColor=none;rotation=90;" vertex="1" parent="1">
          <mxGeometry x="40" y="255" width="120" height="30" as="geometry" />
        </mxCell>
        <mxCell id="1HtGVeH6TY6uXh49nren-41" value="" style="group" vertex="1" connectable="0" parent="1">
          <mxGeometry x="30" y="149" width="120" height="60" as="geometry" />
        </mxCell>
        <mxCell id="1HtGVeH6TY6uXh49nren-42" value="" style="rounded=0;whiteSpace=wrap;html=1;" vertex="1" parent="1HtGVeH6TY6uXh49nren-41">
          <mxGeometry width="120" height="60" as="geometry" />
        </mxCell>
        <mxCell id="1HtGVeH6TY6uXh49nren-43" value="Prescription Review System" style="text;html=1;align=center;verticalAlign=middle;whiteSpace=wrap;rounded=0;" vertex="1" parent="1HtGVeH6TY6uXh49nren-41">
          <mxGeometry x="20" y="15" width="80" height="30" as="geometry" />
        </mxCell>
        <mxCell id="1HtGVeH6TY6uXh49nren-44" value="" style="group" vertex="1" connectable="0" parent="1">
          <mxGeometry x="500" y="230" width="120" height="60" as="geometry" />
        </mxCell>
        <mxCell id="1HtGVeH6TY6uXh49nren-45" value="" style="rounded=0;whiteSpace=wrap;html=1;" vertex="1" parent="1HtGVeH6TY6uXh49nren-44">
          <mxGeometry width="120" height="60" as="geometry" />
        </mxCell>
        <mxCell id="1HtGVeH6TY6uXh49nren-46" value="Lab Station" style="text;html=1;align=center;verticalAlign=middle;whiteSpace=wrap;rounded=0;" vertex="1" parent="1HtGVeH6TY6uXh49nren-44">
          <mxGeometry x="20" y="15" width="80" height="30" as="geometry" />
        </mxCell>
        <mxCell id="EBD7aDAjaYQaZ3vh4tLw-64" value="" style="edgeStyle=orthogonalEdgeStyle;rounded=0;orthogonalLoop=1;jettySize=auto;html=1;" edge="1" parent="1" source="1HtGVeH6TY6uXh49nren-47" target="1HtGVeH6TY6uXh49nren-50">
          <mxGeometry relative="1" as="geometry" />
        </mxCell>
        <mxCell id="1HtGVeH6TY6uXh49nren-47" value="" style="rounded=0;whiteSpace=wrap;html=1;" vertex="1" parent="1">
          <mxGeometry x="500" y="315" width="120" height="60" as="geometry" />
        </mxCell>
        <mxCell id="1HtGVeH6TY6uXh49nren-48" value="Shelving Station" style="text;html=1;align=center;verticalAlign=middle;whiteSpace=wrap;rounded=0;" vertex="1" parent="1">
          <mxGeometry x="520" y="330" width="80" height="30" as="geometry" />
        </mxCell>
        <mxCell id="1HtGVeH6TY6uXh49nren-49" value="" style="rounded=0;whiteSpace=wrap;html=1;" vertex="1" parent="1">
          <mxGeometry x="500" y="405" width="120" height="60" as="geometry" />
        </mxCell>
        <mxCell id="1HtGVeH6TY6uXh49nren-50" value="Secure Station" style="text;html=1;align=center;verticalAlign=middle;whiteSpace=wrap;rounded=0;" vertex="1" parent="1">
          <mxGeometry x="520" y="420" width="80" height="30" as="geometry" />
        </mxCell>
        <mxCell id="1HtGVeH6TY6uXh49nren-51" value="" style="rounded=0;whiteSpace=wrap;html=1;" vertex="1" parent="1">
          <mxGeometry x="1000" y="82" width="120" height="60" as="geometry" />
        </mxCell>
        <mxCell id="1HtGVeH6TY6uXh49nren-52" value="Nurse Stations" style="text;html=1;align=center;verticalAlign=middle;whiteSpace=wrap;rounded=0;" vertex="1" parent="1">
          <mxGeometry x="1020" y="97" width="80" height="30" as="geometry" />
        </mxCell>
        <mxCell id="1HtGVeH6TY6uXh49nren-55" value="" style="group" vertex="1" connectable="0" parent="1">
          <mxGeometry x="280" y="304" width="90" height="110" as="geometry" />
        </mxCell>
        <mxCell id="1HtGVeH6TY6uXh49nren-56" value="" style="rounded=1;whiteSpace=wrap;html=1;" vertex="1" parent="1HtGVeH6TY6uXh49nren-55">
          <mxGeometry width="90" height="90" as="geometry" />
        </mxCell>
        <mxCell id="1HtGVeH6TY6uXh49nren-57" value="" style="endArrow=none;html=1;rounded=0;exitX=0;exitY=0.25;exitDx=0;exitDy=0;entryX=1;entryY=0.25;entryDx=0;entryDy=0;" edge="1" parent="1HtGVeH6TY6uXh49nren-55" source="1HtGVeH6TY6uXh49nren-56" target="1HtGVeH6TY6uXh49nren-56">
          <mxGeometry width="50" height="50" relative="1" as="geometry">
            <mxPoint x="10" y="29.5" as="sourcePoint" />
            <mxPoint x="80" y="29.5" as="targetPoint" />
          </mxGeometry>
        </mxCell>
        <mxCell id="1HtGVeH6TY6uXh49nren-58" value="Sort &amp;amp; Send to stations" style="text;html=1;align=center;verticalAlign=middle;whiteSpace=wrap;rounded=0;" vertex="1" parent="1HtGVeH6TY6uXh49nren-55">
          <mxGeometry x="15" y="25" width="60" height="60" as="geometry" />
        </mxCell>
        <mxCell id="1HtGVeH6TY6uXh49nren-59" value="1.0" style="text;html=1;align=center;verticalAlign=middle;whiteSpace=wrap;rounded=0;" vertex="1" parent="1HtGVeH6TY6uXh49nren-55">
          <mxGeometry x="15" y="4" width="50" height="20" as="geometry" />
        </mxCell>
        <mxCell id="1HtGVeH6TY6uXh49nren-2" value="" style="rounded=1;whiteSpace=wrap;html=1;" vertex="1" parent="1">
          <mxGeometry x="280" y="140" width="90" height="90" as="geometry" />
        </mxCell>
        <mxCell id="1HtGVeH6TY6uXh49nren-3" value="" style="endArrow=none;html=1;rounded=0;exitX=0;exitY=0.25;exitDx=0;exitDy=0;entryX=1;entryY=0.25;entryDx=0;entryDy=0;" edge="1" parent="1" source="1HtGVeH6TY6uXh49nren-2" target="1HtGVeH6TY6uXh49nren-2">
          <mxGeometry width="50" height="50" relative="1" as="geometry">
            <mxPoint x="290" y="169.5" as="sourcePoint" />
            <mxPoint x="360" y="169.5" as="targetPoint" />
          </mxGeometry>
        </mxCell>
        <mxCell id="1HtGVeH6TY6uXh49nren-4" value="Review Prescription" style="text;html=1;align=center;verticalAlign=middle;whiteSpace=wrap;rounded=0;" vertex="1" parent="1">
          <mxGeometry x="295" y="165" width="60" height="60" as="geometry" />
        </mxCell>
        <mxCell id="1HtGVeH6TY6uXh49nren-5" value="1.0" style="text;html=1;align=center;verticalAlign=middle;whiteSpace=wrap;rounded=0;" vertex="1" parent="1">
          <mxGeometry x="295" y="144" width="50" height="20" as="geometry" />
        </mxCell>
        <mxCell id="1HtGVeH6TY6uXh49nren-60" value="" style="endArrow=classic;html=1;rounded=0;entryX=0.5;entryY=0;entryDx=0;entryDy=0;exitX=0.5;exitY=1;exitDx=0;exitDy=0;" edge="1" parent="1" source="1HtGVeH6TY6uXh49nren-2" target="1HtGVeH6TY6uXh49nren-56">
          <mxGeometry width="50" height="50" relative="1" as="geometry">
            <mxPoint x="330" y="290" as="sourcePoint" />
            <mxPoint x="380" y="240" as="targetPoint" />
          </mxGeometry>
        </mxCell>
        <mxCell id="1HtGVeH6TY6uXh49nren-61" style="edgeStyle=orthogonalEdgeStyle;rounded=0;orthogonalLoop=1;jettySize=auto;html=1;exitX=0.5;exitY=0;exitDx=0;exitDy=0;entryX=0.5;entryY=1;entryDx=0;entryDy=0;" edge="1" parent="1" source="1HtGVeH6TY6uXh49nren-7" target="1HtGVeH6TY6uXh49nren-42">
          <mxGeometry relative="1" as="geometry" />
        </mxCell>
        <mxCell id="1HtGVeH6TY6uXh49nren-65" value="" style="endArrow=classic;html=1;rounded=0;entryX=0;entryY=0.5;entryDx=0;entryDy=0;" edge="1" parent="1" target="1HtGVeH6TY6uXh49nren-2">
          <mxGeometry width="50" height="50" relative="1" as="geometry">
            <mxPoint x="150" y="185" as="sourcePoint" />
            <mxPoint x="200" y="135" as="targetPoint" />
          </mxGeometry>
        </mxCell>
        <mxCell id="1HtGVeH6TY6uXh49nren-66" value="" style="edgeStyle=elbowEdgeStyle;elbow=horizontal;endArrow=classic;html=1;curved=0;rounded=0;endSize=8;startSize=8;entryX=0;entryY=0.5;entryDx=0;entryDy=0;exitX=1;exitY=0.5;exitDx=0;exitDy=0;" edge="1" parent="1" source="1HtGVeH6TY6uXh49nren-56">
          <mxGeometry width="50" height="50" relative="1" as="geometry">
            <mxPoint x="370" y="360" as="sourcePoint" />
            <mxPoint x="500" y="265" as="targetPoint" />
            <Array as="points">
              <mxPoint x="420" y="305" />
            </Array>
          </mxGeometry>
        </mxCell>
        <mxCell id="1HtGVeH6TY6uXh49nren-67" value="" style="endArrow=classic;html=1;rounded=0;entryX=0;entryY=0.75;entryDx=0;entryDy=0;" edge="1" parent="1">
          <mxGeometry width="50" height="50" relative="1" as="geometry">
            <mxPoint x="420" y="349" as="sourcePoint" />
            <mxPoint x="500" y="349" as="targetPoint" />
          </mxGeometry>
        </mxCell>
        <mxCell id="1HtGVeH6TY6uXh49nren-68" value="" style="edgeStyle=elbowEdgeStyle;elbow=horizontal;endArrow=classic;html=1;curved=0;rounded=0;endSize=8;startSize=8;" edge="1" parent="1">
          <mxGeometry width="50" height="50" relative="1" as="geometry">
            <mxPoint x="420" y="350" as="sourcePoint" />
            <mxPoint x="500" y="444.35" as="targetPoint" />
            <Array as="points">
              <mxPoint x="420" y="400" />
            </Array>
          </mxGeometry>
        </mxCell>
        <mxCell id="1HtGVeH6TY6uXh49nren-69" value="" style="rounded=1;whiteSpace=wrap;html=1;" vertex="1" parent="1">
          <mxGeometry x="850" y="241" width="90" height="90" as="geometry" />
        </mxCell>
        <mxCell id="1HtGVeH6TY6uXh49nren-70" value="" style="endArrow=none;html=1;rounded=0;exitX=0;exitY=0.25;exitDx=0;exitDy=0;entryX=1;entryY=0.25;entryDx=0;entryDy=0;" edge="1" parent="1" source="1HtGVeH6TY6uXh49nren-69" target="1HtGVeH6TY6uXh49nren-69">
          <mxGeometry width="50" height="50" relative="1" as="geometry">
            <mxPoint x="860" y="270.5" as="sourcePoint" />
            <mxPoint x="930" y="270.5" as="targetPoint" />
          </mxGeometry>
        </mxCell>
        <mxCell id="1HtGVeH6TY6uXh49nren-71" value="Order filled" style="text;html=1;align=center;verticalAlign=middle;whiteSpace=wrap;rounded=0;" vertex="1" parent="1">
          <mxGeometry x="865" y="266" width="60" height="60" as="geometry" />
        </mxCell>
        <mxCell id="1HtGVeH6TY6uXh49nren-72" value="1.0" style="text;html=1;align=center;verticalAlign=middle;whiteSpace=wrap;rounded=0;" vertex="1" parent="1">
          <mxGeometry x="865" y="245" width="50" height="20" as="geometry" />
        </mxCell>
        <mxCell id="1HtGVeH6TY6uXh49nren-73" value="" style="rounded=1;whiteSpace=wrap;html=1;" vertex="1" parent="1">
          <mxGeometry x="685" y="214" width="90" height="90" as="geometry" />
        </mxCell>
        <mxCell id="1HtGVeH6TY6uXh49nren-74" value="" style="endArrow=none;html=1;rounded=0;exitX=0;exitY=0.25;exitDx=0;exitDy=0;entryX=1;entryY=0.25;entryDx=0;entryDy=0;" edge="1" parent="1" source="1HtGVeH6TY6uXh49nren-73" target="1HtGVeH6TY6uXh49nren-73">
          <mxGeometry width="50" height="50" relative="1" as="geometry">
            <mxPoint x="695" y="243.5" as="sourcePoint" />
            <mxPoint x="765" y="243.5" as="targetPoint" />
          </mxGeometry>
        </mxCell>
        <mxCell id="1HtGVeH6TY6uXh49nren-75" value="Drug formulated &amp;amp; order reviewed" style="text;html=1;align=center;verticalAlign=middle;whiteSpace=wrap;rounded=0;" vertex="1" parent="1">
          <mxGeometry x="685" y="239" width="90" height="60" as="geometry" />
        </mxCell>
        <mxCell id="1HtGVeH6TY6uXh49nren-76" value="1.0" style="text;html=1;align=center;verticalAlign=middle;whiteSpace=wrap;rounded=0;" vertex="1" parent="1">
          <mxGeometry x="700" y="218" width="50" height="20" as="geometry" />
        </mxCell>
        <mxCell id="1HtGVeH6TY6uXh49nren-77" value="" style="rounded=1;whiteSpace=wrap;html=1;" vertex="1" parent="1">
          <mxGeometry x="690" y="340" width="90" height="90" as="geometry" />
        </mxCell>
        <mxCell id="1HtGVeH6TY6uXh49nren-78" value="" style="endArrow=none;html=1;rounded=0;exitX=0;exitY=0.25;exitDx=0;exitDy=0;entryX=1;entryY=0.25;entryDx=0;entryDy=0;" edge="1" parent="1" source="1HtGVeH6TY6uXh49nren-77" target="1HtGVeH6TY6uXh49nren-77">
          <mxGeometry width="50" height="50" relative="1" as="geometry">
            <mxPoint x="700" y="369.5" as="sourcePoint" />
            <mxPoint x="770" y="369.5" as="targetPoint" />
          </mxGeometry>
        </mxCell>
        <mxCell id="1HtGVeH6TY6uXh49nren-79" value="Order is reviewed &amp;amp; packed" style="text;html=1;align=center;verticalAlign=middle;whiteSpace=wrap;rounded=0;" vertex="1" parent="1">
          <mxGeometry x="705" y="365" width="60" height="60" as="geometry" />
        </mxCell>
        <mxCell id="1HtGVeH6TY6uXh49nren-80" value="1.0" style="text;html=1;align=center;verticalAlign=middle;whiteSpace=wrap;rounded=0;" vertex="1" parent="1">
          <mxGeometry x="705" y="344" width="50" height="20" as="geometry" />
        </mxCell>
        <mxCell id="1HtGVeH6TY6uXh49nren-81" value="" style="rounded=1;whiteSpace=wrap;html=1;" vertex="1" parent="1">
          <mxGeometry x="849" y="60" width="90" height="90" as="geometry" />
        </mxCell>
        <mxCell id="1HtGVeH6TY6uXh49nren-82" value="" style="endArrow=none;html=1;rounded=0;exitX=0;exitY=0.25;exitDx=0;exitDy=0;entryX=1;entryY=0.25;entryDx=0;entryDy=0;" edge="1" parent="1" source="1HtGVeH6TY6uXh49nren-81" target="1HtGVeH6TY6uXh49nren-81">
          <mxGeometry width="50" height="50" relative="1" as="geometry">
            <mxPoint x="859" y="89.5" as="sourcePoint" />
            <mxPoint x="929" y="89.5" as="targetPoint" />
          </mxGeometry>
        </mxCell>
        <mxCell id="1HtGVeH6TY6uXh49nren-83" value="Label is generated" style="text;html=1;align=center;verticalAlign=middle;whiteSpace=wrap;rounded=0;" vertex="1" parent="1">
          <mxGeometry x="864" y="85" width="60" height="60" as="geometry" />
        </mxCell>
        <mxCell id="1HtGVeH6TY6uXh49nren-84" value="1.0" style="text;html=1;align=center;verticalAlign=middle;whiteSpace=wrap;rounded=0;" vertex="1" parent="1">
          <mxGeometry x="864" y="64" width="50" height="20" as="geometry" />
        </mxCell>
        <mxCell id="1HtGVeH6TY6uXh49nren-85" value="" style="rounded=1;whiteSpace=wrap;html=1;" vertex="1" parent="1">
          <mxGeometry x="849" y="477" width="90" height="90" as="geometry" />
        </mxCell>
        <mxCell id="1HtGVeH6TY6uXh49nren-86" value="" style="endArrow=none;html=1;rounded=0;exitX=0;exitY=0.25;exitDx=0;exitDy=0;entryX=1;entryY=0.25;entryDx=0;entryDy=0;" edge="1" parent="1" source="1HtGVeH6TY6uXh49nren-85" target="1HtGVeH6TY6uXh49nren-85">
          <mxGeometry width="50" height="50" relative="1" as="geometry">
            <mxPoint x="859" y="506.5" as="sourcePoint" />
            <mxPoint x="929" y="506.5" as="targetPoint" />
          </mxGeometry>
        </mxCell>
        <mxCell id="1HtGVeH6TY6uXh49nren-87" value="Contacting prescribing doctor" style="text;html=1;align=center;verticalAlign=middle;whiteSpace=wrap;rounded=0;" vertex="1" parent="1">
          <mxGeometry x="864" y="502" width="60" height="60" as="geometry" />
        </mxCell>
        <mxCell id="1HtGVeH6TY6uXh49nren-88" value="1.0" style="text;html=1;align=center;verticalAlign=middle;whiteSpace=wrap;rounded=0;" vertex="1" parent="1">
          <mxGeometry x="864" y="481" width="50" height="20" as="geometry" />
        </mxCell>
        <mxCell id="1HtGVeH6TY6uXh49nren-94" value="" style="edgeStyle=elbowEdgeStyle;elbow=vertical;endArrow=classic;html=1;curved=0;rounded=0;endSize=8;startSize=8;entryX=0.5;entryY=1;entryDx=0;entryDy=0;exitX=0.25;exitY=1;exitDx=0;exitDy=0;" edge="1" parent="1" source="1HtGVeH6TY6uXh49nren-87">
          <mxGeometry width="50" height="50" relative="1" as="geometry">
            <mxPoint x="850" y="540" as="sourcePoint" />
            <mxPoint x="70" y="400" as="targetPoint" />
            <Array as="points">
              <mxPoint x="460" y="600" />
              <mxPoint x="510" y="570" />
            </Array>
          </mxGeometry>
        </mxCell>
        <mxCell id="1HtGVeH6TY6uXh49nren-101" value="" style="group" vertex="1" connectable="0" parent="1">
          <mxGeometry x="50" y="20" width="122.5" height="60" as="geometry" />
        </mxCell>
        <mxCell id="1HtGVeH6TY6uXh49nren-96" value="" style="shape=partialRectangle;whiteSpace=wrap;html=1;left=0;right=0;fillColor=none;" vertex="1" parent="1HtGVeH6TY6uXh49nren-101">
          <mxGeometry x="2.5" width="120" height="60" as="geometry" />
        </mxCell>
        <mxCell id="1HtGVeH6TY6uXh49nren-98" value="" style="rounded=0;whiteSpace=wrap;html=1;fillColor=#009999;" vertex="1" parent="1HtGVeH6TY6uXh49nren-101">
          <mxGeometry x="2.5" width="40" height="60" as="geometry" />
        </mxCell>
        <mxCell id="1HtGVeH6TY6uXh49nren-100" value="D1" style="text;html=1;align=center;verticalAlign=middle;whiteSpace=wrap;rounded=0;" vertex="1" parent="1HtGVeH6TY6uXh49nren-101">
          <mxGeometry y="20" width="45" height="20" as="geometry" />
        </mxCell>
        <mxCell id="EBD7aDAjaYQaZ3vh4tLw-1" value="Prescriptions received File" style="text;html=1;align=center;verticalAlign=middle;whiteSpace=wrap;rounded=0;" vertex="1" parent="1HtGVeH6TY6uXh49nren-101">
          <mxGeometry x="55" y="15" width="60" height="30" as="geometry" />
        </mxCell>
        <mxCell id="1HtGVeH6TY6uXh49nren-102" value="" style="group" vertex="1" connectable="0" parent="1">
          <mxGeometry x="197" y="430" width="142.5" height="60" as="geometry" />
        </mxCell>
        <mxCell id="1HtGVeH6TY6uXh49nren-103" value="" style="shape=partialRectangle;whiteSpace=wrap;html=1;left=0;right=0;fillColor=none;" vertex="1" parent="1HtGVeH6TY6uXh49nren-102">
          <mxGeometry x="2.5" width="120" height="60" as="geometry" />
        </mxCell>
        <mxCell id="1HtGVeH6TY6uXh49nren-104" value="" style="rounded=0;whiteSpace=wrap;html=1;fillColor=#009999;" vertex="1" parent="1HtGVeH6TY6uXh49nren-102">
          <mxGeometry x="2.5" width="40" height="60" as="geometry" />
        </mxCell>
        <mxCell id="1HtGVeH6TY6uXh49nren-105" value="D2" style="text;html=1;align=center;verticalAlign=middle;whiteSpace=wrap;rounded=0;" vertex="1" parent="1HtGVeH6TY6uXh49nren-102">
          <mxGeometry x="-44" y="20" width="130" height="20" as="geometry" />
        </mxCell>
        <mxCell id="EBD7aDAjaYQaZ3vh4tLw-2" value="Prescriptions received File" style="text;html=1;align=center;verticalAlign=middle;whiteSpace=wrap;rounded=0;" vertex="1" parent="1HtGVeH6TY6uXh49nren-102">
          <mxGeometry x="50" y="10" width="60" height="30" as="geometry" />
        </mxCell>
        <mxCell id="EBD7aDAjaYQaZ3vh4tLw-67" value="Reviewed Prescription Data" style="text;html=1;align=center;verticalAlign=middle;whiteSpace=wrap;rounded=0;" vertex="1" parent="1HtGVeH6TY6uXh49nren-102">
          <mxGeometry x="-17.5" y="-31" width="160" height="30" as="geometry" />
        </mxCell>
        <mxCell id="1HtGVeH6TY6uXh49nren-110" value="" style="endArrow=classic;html=1;rounded=0;entryX=0;entryY=0.5;entryDx=0;entryDy=0;" edge="1" parent="1">
          <mxGeometry width="50" height="50" relative="1" as="geometry">
            <mxPoint x="620" y="261" as="sourcePoint" />
            <mxPoint x="685" y="262" as="targetPoint" />
          </mxGeometry>
        </mxCell>
        <mxCell id="1HtGVeH6TY6uXh49nren-112" value="" style="endArrow=classic;html=1;rounded=0;entryX=-0.034;entryY=0.662;entryDx=0;entryDy=0;entryPerimeter=0;" edge="1" parent="1" target="1HtGVeH6TY6uXh49nren-77">
          <mxGeometry width="50" height="50" relative="1" as="geometry">
            <mxPoint x="620" y="439" as="sourcePoint" />
            <mxPoint x="680" y="410" as="targetPoint" />
          </mxGeometry>
        </mxCell>
        <mxCell id="1HtGVeH6TY6uXh49nren-113" value="" style="endArrow=classic;html=1;rounded=0;entryX=-0.013;entryY=0.44;entryDx=0;entryDy=0;entryPerimeter=0;" edge="1" parent="1" target="1HtGVeH6TY6uXh49nren-77">
          <mxGeometry width="50" height="50" relative="1" as="geometry">
            <mxPoint x="620" y="345" as="sourcePoint" />
            <mxPoint x="680" y="380" as="targetPoint" />
          </mxGeometry>
        </mxCell>
        <mxCell id="1HtGVeH6TY6uXh49nren-114" value="" style="endArrow=classic;html=1;rounded=0;entryX=0;entryY=0.75;entryDx=0;entryDy=0;" edge="1" parent="1" target="1HtGVeH6TY6uXh49nren-69">
          <mxGeometry width="50" height="50" relative="1" as="geometry">
            <mxPoint x="780" y="380" as="sourcePoint" />
            <mxPoint x="830" y="330" as="targetPoint" />
          </mxGeometry>
        </mxCell>
        <mxCell id="1HtGVeH6TY6uXh49nren-115" value="" style="endArrow=classic;html=1;rounded=0;" edge="1" parent="1">
          <mxGeometry width="50" height="50" relative="1" as="geometry">
            <mxPoint x="775" y="271" as="sourcePoint" />
            <mxPoint x="845" y="290" as="targetPoint" />
          </mxGeometry>
        </mxCell>
        <mxCell id="1HtGVeH6TY6uXh49nren-116" value="" style="endArrow=classic;html=1;rounded=0;exitX=0.5;exitY=1;exitDx=0;exitDy=0;" edge="1" parent="1" source="1HtGVeH6TY6uXh49nren-69">
          <mxGeometry width="50" height="50" relative="1" as="geometry">
            <mxPoint x="840" y="411" as="sourcePoint" />
            <mxPoint x="895" y="470" as="targetPoint" />
          </mxGeometry>
        </mxCell>
        <mxCell id="1HtGVeH6TY6uXh49nren-117" value="" style="endArrow=classic;html=1;rounded=0;exitX=0.5;exitY=0;exitDx=0;exitDy=0;entryX=0.5;entryY=1;entryDx=0;entryDy=0;" edge="1" parent="1" source="1HtGVeH6TY6uXh49nren-69" target="1HtGVeH6TY6uXh49nren-81">
          <mxGeometry width="50" height="50" relative="1" as="geometry">
            <mxPoint x="830" y="164" as="sourcePoint" />
            <mxPoint x="900" y="183" as="targetPoint" />
          </mxGeometry>
        </mxCell>
        <mxCell id="1HtGVeH6TY6uXh49nren-118" value="" style="rounded=1;whiteSpace=wrap;html=1;" vertex="1" parent="1">
          <mxGeometry x="1015" y="246" width="90" height="90" as="geometry" />
        </mxCell>
        <mxCell id="1HtGVeH6TY6uXh49nren-119" value="" style="endArrow=none;html=1;rounded=0;exitX=0;exitY=0.25;exitDx=0;exitDy=0;entryX=1;entryY=0.25;entryDx=0;entryDy=0;" edge="1" parent="1" source="1HtGVeH6TY6uXh49nren-118" target="1HtGVeH6TY6uXh49nren-118">
          <mxGeometry width="50" height="50" relative="1" as="geometry">
            <mxPoint x="1030" y="275.5" as="sourcePoint" />
            <mxPoint x="1100" y="275.5" as="targetPoint" />
          </mxGeometry>
        </mxCell>
        <mxCell id="1HtGVeH6TY6uXh49nren-120" value="Invoice generated" style="text;html=1;align=center;verticalAlign=middle;whiteSpace=wrap;rounded=0;" vertex="1" parent="1">
          <mxGeometry x="1035" y="271" width="60" height="60" as="geometry" />
        </mxCell>
        <mxCell id="1HtGVeH6TY6uXh49nren-121" value="1.0" style="text;html=1;align=center;verticalAlign=middle;whiteSpace=wrap;rounded=0;" vertex="1" parent="1">
          <mxGeometry x="1035" y="250" width="50" height="20" as="geometry" />
        </mxCell>
        <mxCell id="1HtGVeH6TY6uXh49nren-122" value="" style="endArrow=classic;html=1;rounded=0;exitX=0.996;exitY=0.572;exitDx=0;exitDy=0;exitPerimeter=0;entryX=0;entryY=0.5;entryDx=0;entryDy=0;" edge="1" parent="1" source="1HtGVeH6TY6uXh49nren-81" target="1HtGVeH6TY6uXh49nren-51">
          <mxGeometry width="50" height="50" relative="1" as="geometry">
            <mxPoint x="1030" y="310" as="sourcePoint" />
            <mxPoint x="1080" y="260" as="targetPoint" />
          </mxGeometry>
        </mxCell>
        <mxCell id="1HtGVeH6TY6uXh49nren-123" value="" style="endArrow=classic;html=1;rounded=0;exitX=0.5;exitY=1;exitDx=0;exitDy=0;entryX=0.5;entryY=0;entryDx=0;entryDy=0;" edge="1" parent="1" source="1HtGVeH6TY6uXh49nren-51" target="1HtGVeH6TY6uXh49nren-121">
          <mxGeometry width="50" height="50" relative="1" as="geometry">
            <mxPoint x="1030" y="310" as="sourcePoint" />
            <mxPoint x="1080" y="260" as="targetPoint" />
          </mxGeometry>
        </mxCell>
        <mxCell id="1HtGVeH6TY6uXh49nren-124" value="" style="endArrow=classic;html=1;rounded=0;exitX=0.5;exitY=1;exitDx=0;exitDy=0;entryX=0.5;entryY=0;entryDx=0;entryDy=0;" edge="1" parent="1" source="1HtGVeH6TY6uXh49nren-118" target="1HtGVeH6TY6uXh49nren-10">
          <mxGeometry width="50" height="50" relative="1" as="geometry">
            <mxPoint x="1030" y="310" as="sourcePoint" />
            <mxPoint x="1080" y="260" as="targetPoint" />
          </mxGeometry>
        </mxCell>
        <mxCell id="EBD7aDAjaYQaZ3vh4tLw-5" value="" style="group" vertex="1" connectable="0" parent="1">
          <mxGeometry x="760" y="150" width="122.5" height="60" as="geometry" />
        </mxCell>
        <mxCell id="EBD7aDAjaYQaZ3vh4tLw-6" value="" style="shape=partialRectangle;whiteSpace=wrap;html=1;left=0;right=0;fillColor=none;" vertex="1" parent="EBD7aDAjaYQaZ3vh4tLw-5">
          <mxGeometry x="-23.5" width="120" height="60" as="geometry" />
        </mxCell>
        <mxCell id="EBD7aDAjaYQaZ3vh4tLw-7" value="" style="rounded=0;whiteSpace=wrap;html=1;fillColor=#009999;" vertex="1" parent="EBD7aDAjaYQaZ3vh4tLw-5">
          <mxGeometry x="-23.5" width="40" height="60" as="geometry" />
        </mxCell>
        <mxCell id="EBD7aDAjaYQaZ3vh4tLw-8" value="D4" style="text;html=1;align=center;verticalAlign=middle;whiteSpace=wrap;rounded=0;" vertex="1" parent="EBD7aDAjaYQaZ3vh4tLw-5">
          <mxGeometry x="-26" y="20" width="45" height="20" as="geometry" />
        </mxCell>
        <mxCell id="EBD7aDAjaYQaZ3vh4tLw-9" value="Ordered filled file" style="text;html=1;align=center;verticalAlign=middle;whiteSpace=wrap;rounded=0;" vertex="1" parent="EBD7aDAjaYQaZ3vh4tLw-5">
          <mxGeometry x="29" y="15" width="60" height="30" as="geometry" />
        </mxCell>
        <mxCell id="EBD7aDAjaYQaZ3vh4tLw-23" value="" style="group" vertex="1" connectable="0" parent="1">
          <mxGeometry x="940" y="560" width="122.5" height="60" as="geometry" />
        </mxCell>
        <mxCell id="EBD7aDAjaYQaZ3vh4tLw-24" value="" style="shape=partialRectangle;whiteSpace=wrap;html=1;left=0;right=0;fillColor=none;" vertex="1" parent="EBD7aDAjaYQaZ3vh4tLw-23">
          <mxGeometry x="2.5" width="120" height="60" as="geometry" />
        </mxCell>
        <mxCell id="EBD7aDAjaYQaZ3vh4tLw-25" value="" style="rounded=0;whiteSpace=wrap;html=1;fillColor=#009999;" vertex="1" parent="EBD7aDAjaYQaZ3vh4tLw-23">
          <mxGeometry x="2.5" width="40" height="60" as="geometry" />
        </mxCell>
        <mxCell id="EBD7aDAjaYQaZ3vh4tLw-26" value="D2" style="text;html=1;align=center;verticalAlign=middle;whiteSpace=wrap;rounded=0;" vertex="1" parent="EBD7aDAjaYQaZ3vh4tLw-23">
          <mxGeometry y="20" width="45" height="20" as="geometry" />
        </mxCell>
        <mxCell id="EBD7aDAjaYQaZ3vh4tLw-27" value="Prescriptions received File" style="text;html=1;align=center;verticalAlign=middle;whiteSpace=wrap;rounded=0;" vertex="1" parent="EBD7aDAjaYQaZ3vh4tLw-23">
          <mxGeometry x="50" y="10" width="60" height="30" as="geometry" />
        </mxCell>
        <mxCell id="EBD7aDAjaYQaZ3vh4tLw-28" value="Reviewed &lt;br&gt;Order" style="text;html=1;align=center;verticalAlign=middle;whiteSpace=wrap;rounded=0;rotation=90;" vertex="1" parent="1">
          <mxGeometry x="300" y="254" width="100" height="30" as="geometry" />
        </mxCell>
        <mxCell id="EBD7aDAjaYQaZ3vh4tLw-29" value="Prescription Receieved" style="text;html=1;align=center;verticalAlign=middle;whiteSpace=wrap;rounded=0;" vertex="1" parent="1">
          <mxGeometry x="180" y="188" width="60" height="30" as="geometry" />
        </mxCell>
        <mxCell id="EBD7aDAjaYQaZ3vh4tLw-30" value="Specific prescription orders" style="text;html=1;align=center;verticalAlign=middle;whiteSpace=wrap;rounded=0;rotation=-90;" vertex="1" parent="1">
          <mxGeometry x="370" y="316" width="60" height="30" as="geometry" />
        </mxCell>
        <mxCell id="EBD7aDAjaYQaZ3vh4tLw-33" value="formulated&amp;nbsp; drug" style="text;html=1;align=center;verticalAlign=middle;whiteSpace=wrap;rounded=0;" vertex="1" parent="1">
          <mxGeometry x="620" y="200" width="60" height="30" as="geometry" />
        </mxCell>
        <mxCell id="EBD7aDAjaYQaZ3vh4tLw-34" value="Drug found" style="text;html=1;align=center;verticalAlign=middle;whiteSpace=wrap;rounded=0;" vertex="1" parent="1">
          <mxGeometry x="620" y="370" width="60" height="30" as="geometry" />
        </mxCell>
        <mxCell id="EBD7aDAjaYQaZ3vh4tLw-35" value="" style="group" vertex="1" connectable="0" parent="1">
          <mxGeometry x="620" y="468" width="122.5" height="60" as="geometry" />
        </mxCell>
        <mxCell id="EBD7aDAjaYQaZ3vh4tLw-36" value="" style="shape=partialRectangle;whiteSpace=wrap;html=1;left=0;right=0;fillColor=none;" vertex="1" parent="EBD7aDAjaYQaZ3vh4tLw-35">
          <mxGeometry x="2.5" width="120" height="60" as="geometry" />
        </mxCell>
        <mxCell id="EBD7aDAjaYQaZ3vh4tLw-37" value="" style="rounded=0;whiteSpace=wrap;html=1;fillColor=#009999;" vertex="1" parent="EBD7aDAjaYQaZ3vh4tLw-35">
          <mxGeometry x="2.5" width="40" height="60" as="geometry" />
        </mxCell>
        <mxCell id="EBD7aDAjaYQaZ3vh4tLw-38" value="D3" style="text;html=1;align=center;verticalAlign=middle;whiteSpace=wrap;rounded=0;" vertex="1" parent="EBD7aDAjaYQaZ3vh4tLw-35">
          <mxGeometry y="20" width="45" height="20" as="geometry" />
        </mxCell>
        <mxCell id="EBD7aDAjaYQaZ3vh4tLw-39" value="Inventory Data File" style="text;html=1;align=center;verticalAlign=middle;whiteSpace=wrap;rounded=0;" vertex="1" parent="EBD7aDAjaYQaZ3vh4tLw-35">
          <mxGeometry x="50" y="10" width="60" height="30" as="geometry" />
        </mxCell>
        <mxCell id="EBD7aDAjaYQaZ3vh4tLw-40" value="" style="edgeStyle=elbowEdgeStyle;elbow=horizontal;endArrow=classic;html=1;curved=0;rounded=0;endSize=8;startSize=8;entryX=1;entryY=0.5;entryDx=0;entryDy=0;exitX=0.75;exitY=1;exitDx=0;exitDy=0;" edge="1" parent="1">
          <mxGeometry width="50" height="50" relative="1" as="geometry">
            <mxPoint x="340" y="394" as="sourcePoint" />
            <mxPoint x="319.5" y="465" as="targetPoint" />
            <Array as="points">
              <mxPoint x="350" y="435" />
            </Array>
          </mxGeometry>
        </mxCell>
        <mxCell id="EBD7aDAjaYQaZ3vh4tLw-42" value="Order confirmed" style="text;html=1;align=center;verticalAlign=middle;whiteSpace=wrap;rounded=0;" vertex="1" parent="1">
          <mxGeometry x="775" y="299" width="60" height="30" as="geometry" />
        </mxCell>
        <mxCell id="EBD7aDAjaYQaZ3vh4tLw-43" value="Order Inappropriate" style="text;html=1;align=center;verticalAlign=middle;whiteSpace=wrap;rounded=0;rotation=-90;" vertex="1" parent="1">
          <mxGeometry x="835" y="370" width="60" height="30" as="geometry" />
        </mxCell>
        <mxCell id="EBD7aDAjaYQaZ3vh4tLw-44" value="" style="edgeStyle=elbowEdgeStyle;elbow=horizontal;endArrow=classic;html=1;curved=0;rounded=0;endSize=8;startSize=8;entryX=1;entryY=0.5;entryDx=0;entryDy=0;exitX=0.75;exitY=1;exitDx=0;exitDy=0;" edge="1" parent="1">
          <mxGeometry width="50" height="50" relative="1" as="geometry">
            <mxPoint x="755" y="430" as="sourcePoint" />
            <mxPoint x="734.5" y="501" as="targetPoint" />
            <Array as="points">
              <mxPoint x="765" y="471" />
            </Array>
          </mxGeometry>
        </mxCell>
        <mxCell id="EBD7aDAjaYQaZ3vh4tLw-45" value="" style="edgeStyle=elbowEdgeStyle;elbow=horizontal;endArrow=classic;html=1;curved=0;rounded=0;endSize=8;startSize=8;" edge="1" parent="1">
          <mxGeometry width="50" height="50" relative="1" as="geometry">
            <mxPoint x="150" y="160" as="sourcePoint" />
            <mxPoint x="180" y="50" as="targetPoint" />
            <Array as="points">
              <mxPoint x="200" y="90" />
            </Array>
          </mxGeometry>
        </mxCell>
        <mxCell id="EBD7aDAjaYQaZ3vh4tLw-46" value="Label" style="text;html=1;align=center;verticalAlign=middle;whiteSpace=wrap;rounded=0;" vertex="1" parent="1">
          <mxGeometry x="937" y="80" width="60" height="30" as="geometry" />
        </mxCell>
        <mxCell id="EBD7aDAjaYQaZ3vh4tLw-48" value="" style="edgeStyle=elbowEdgeStyle;elbow=vertical;endArrow=classic;html=1;curved=0;rounded=0;endSize=8;startSize=8;entryX=1;entryY=0.5;entryDx=0;entryDy=0;" edge="1" parent="1" target="EBD7aDAjaYQaZ3vh4tLw-6">
          <mxGeometry width="50" height="50" relative="1" as="geometry">
            <mxPoint x="870" y="240" as="sourcePoint" />
            <mxPoint x="830" y="188" as="targetPoint" />
            <Array as="points">
              <mxPoint x="870" y="180" />
            </Array>
          </mxGeometry>
        </mxCell>
        <mxCell id="EBD7aDAjaYQaZ3vh4tLw-49" value="Dosage" style="text;html=1;align=center;verticalAlign=middle;whiteSpace=wrap;rounded=0;rotation=90;" vertex="1" parent="1">
          <mxGeometry x="885" y="188" width="60" height="30" as="geometry" />
        </mxCell>
        <mxCell id="EBD7aDAjaYQaZ3vh4tLw-50" value="Invoice" style="text;html=1;align=center;verticalAlign=middle;whiteSpace=wrap;rounded=0;rotation=90;" vertex="1" parent="1">
          <mxGeometry x="1045" y="370" width="60" height="30" as="geometry" />
        </mxCell>
        <mxCell id="EBD7aDAjaYQaZ3vh4tLw-51" value="" style="edgeStyle=elbowEdgeStyle;elbow=horizontal;endArrow=classic;html=1;curved=0;rounded=0;endSize=8;startSize=8;entryX=1;entryY=0.25;entryDx=0;entryDy=0;" edge="1" parent="1" target="EBD7aDAjaYQaZ3vh4tLw-24">
          <mxGeometry width="50" height="50" relative="1" as="geometry">
            <mxPoint x="1085" y="494" as="sourcePoint" />
            <mxPoint x="1085" y="574" as="targetPoint" />
          </mxGeometry>
        </mxCell>
        <mxCell id="EBD7aDAjaYQaZ3vh4tLw-62" value="" style="edgeStyle=elbowEdgeStyle;elbow=horizontal;endArrow=classic;html=1;curved=0;rounded=0;endSize=8;startSize=8;entryX=0.004;entryY=0.868;entryDx=0;entryDy=0;exitX=0.75;exitY=1;exitDx=0;exitDy=0;entryPerimeter=0;" edge="1" parent="1" source="1HtGVeH6TY6uXh49nren-7" target="1HtGVeH6TY6uXh49nren-85">
          <mxGeometry width="50" height="50" relative="1" as="geometry">
            <mxPoint x="120" y="400" as="sourcePoint" />
            <mxPoint x="849" y="545" as="targetPoint" />
            <Array as="points">
              <mxPoint x="120" y="510" />
            </Array>
          </mxGeometry>
        </mxCell>
        <mxCell id="EBD7aDAjaYQaZ3vh4tLw-60" value="Alterbative Drug prescribed" style="text;html=1;align=center;verticalAlign=middle;whiteSpace=wrap;rounded=0;" vertex="1" parent="1">
          <mxGeometry x="366" y="523" width="150" height="30" as="geometry" />
        </mxCell>
        <mxCell id="EBD7aDAjaYQaZ3vh4tLw-65" value="Patient&#39;s Details" style="text;html=1;align=center;verticalAlign=middle;whiteSpace=wrap;rounded=0;rotation=90;" vertex="1" parent="1">
          <mxGeometry x="1050" y="184" width="60" height="30" as="geometry" />
        </mxCell>
        <mxCell id="EBD7aDAjaYQaZ3vh4tLw-68" value="Order Reviewed Data" style="text;html=1;align=center;verticalAlign=middle;whiteSpace=wrap;rounded=0;" vertex="1" parent="1">
          <mxGeometry x="620" y="430" width="150" height="30" as="geometry" />
        </mxCell>
        <mxCell id="EBD7aDAjaYQaZ3vh4tLw-69" value="Order &lt;br&gt;Filled Data" style="text;html=1;align=center;verticalAlign=middle;whiteSpace=wrap;rounded=0;" vertex="1" parent="1">
          <mxGeometry x="746.25" y="215" width="150" height="30" as="geometry" />
        </mxCell>
        <mxCell id="EBD7aDAjaYQaZ3vh4tLw-70" value="Prescription sent out Data" style="text;html=1;align=center;verticalAlign=middle;whiteSpace=wrap;rounded=0;" vertex="1" parent="1">
          <mxGeometry x="1002.5" y="507" width="60" height="30" as="geometry" />
        </mxCell>
      </root>
    </mxGraphModel>
  </diagram>
</mxfile>
